<?xml version="1.0" encoding="UTF-8" standalone="no"?>
<!-- Created with Inkscape (http://www.inkscape.org/) -->

<svg
   xmlns:dc="http://purl.org/dc/elements/1.1/"
   xmlns:cc="http://creativecommons.org/ns#"
   xmlns:rdf="http://www.w3.org/1999/02/22-rdf-syntax-ns#"
   xmlns:svg="http://www.w3.org/2000/svg"
   xmlns="http://www.w3.org/2000/svg"
   xmlns:sodipodi="http://sodipodi.sourceforge.net/DTD/sodipodi-0.dtd"
   xmlns:inkscape="http://www.inkscape.org/namespaces/inkscape"
   version="1.1"
   id="svg3129"
   xml:space="preserve"
   width="1122.52"
   height="793.70135"
   viewBox="0 0 1122.52 793.70135"
   sodipodi:docname="pink-lines-grid-swirl.svg"
   inkscape:version="0.92.4 (5da689c313, 2019-01-14)"><metadata
     id="metadata3135"><rdf:RDF><cc:Work
         rdf:about=""><dc:format>image/svg+xml</dc:format><dc:type
           rdf:resource="http://purl.org/dc/dcmitype/StillImage" /><dc:title></dc:title></cc:Work></rdf:RDF></metadata><defs
     id="defs3133"><clipPath
       clipPathUnits="userSpaceOnUse"
       id="clipPath3145"><path
         d="M 0,595.276 H 841.89 V 0 H 0 Z"
         id="path3143"
         inkscape:connector-curvature="0" /></clipPath><clipPath
       clipPathUnits="userSpaceOnUse"
       id="clipPath3153"><path
         d="m 456.165,594.098 h 79.59 V -1.91797 h -79.59 z"
         id="path3151"
         inkscape:connector-curvature="0" /></clipPath><clipPath
       clipPathUnits="userSpaceOnUse"
       id="clipPath3167"><path
         d="m 357.562,594.098 h 127.11 V -1.91797 h -127.11 z"
         id="path3165"
         inkscape:connector-curvature="0" /></clipPath><clipPath
       clipPathUnits="userSpaceOnUse"
       id="clipPath3181"><path
         d="M 257.5,594.098 H 447.025 V -1.91797 H 257.5 Z"
         id="path3179"
         inkscape:connector-curvature="0" /></clipPath><clipPath
       clipPathUnits="userSpaceOnUse"
       id="clipPath3195"><path
         d="M 151.409,594.098 H 421.96 V -1.91797 H 151.409 Z"
         id="path3193"
         inkscape:connector-curvature="0" /></clipPath><clipPath
       clipPathUnits="userSpaceOnUse"
       id="clipPath3209"><path
         d="M 32.3423,594.098 H 409.164 V -1.91797 H 32.3423 Z"
         id="path3207"
         inkscape:connector-curvature="0" /></clipPath><clipPath
       clipPathUnits="userSpaceOnUse"
       id="clipPath3223"><path
         d="M -0.5,552.62 H 405.29 V -1.91797 H -0.5 Z"
         id="path3221"
         inkscape:connector-curvature="0" /></clipPath><clipPath
       clipPathUnits="userSpaceOnUse"
       id="clipPath3237"><path
         d="M -0.5,505.27 H 411.025 V -1.91797 H -0.5 Z"
         id="path3235"
         inkscape:connector-curvature="0" /></clipPath><clipPath
       clipPathUnits="userSpaceOnUse"
       id="clipPath3251"><path
         d="M -0.5,466.01 H 428.521 V -1.91797 H -0.5 Z"
         id="path3249"
         inkscape:connector-curvature="0" /></clipPath><clipPath
       clipPathUnits="userSpaceOnUse"
       id="clipPath3265"><path
         d="M -0.501465,436.866 H 459.644 V -1.91797 H -0.501465 Z"
         id="path3263"
         inkscape:connector-curvature="0" /></clipPath><clipPath
       clipPathUnits="userSpaceOnUse"
       id="clipPath3279"><path
         d="M -0.5,412.705 H 515.583 V -1.91797 H -0.5 Z"
         id="path3277"
         inkscape:connector-curvature="0" /></clipPath><clipPath
       clipPathUnits="userSpaceOnUse"
       id="clipPath3293"><path
         d="M -0.5,394.208 H 606.182 V -1.91797 H -0.5 Z"
         id="path3291"
         inkscape:connector-curvature="0" /></clipPath><clipPath
       clipPathUnits="userSpaceOnUse"
       id="clipPath3307"><path
         d="M -0.5,381.179 H 763.452 V -1.91797 H -0.5 Z"
         id="path3305"
         inkscape:connector-curvature="0" /></clipPath><clipPath
       clipPathUnits="userSpaceOnUse"
       id="clipPath3321"><path
         d="M -0.5,373.052 H 843.35 V 109.002 H -0.5 Z"
         id="path3319"
         inkscape:connector-curvature="0" /></clipPath><clipPath
       clipPathUnits="userSpaceOnUse"
       id="clipPath3335"><path
         d="M -0.5,369.106 H 843.35 V 260.788 H -0.5 Z"
         id="path3333"
         inkscape:connector-curvature="0" /></clipPath><clipPath
       clipPathUnits="userSpaceOnUse"
       id="clipPath3349"><path
         d="M -0.5,398.518 H 843.35 V 365.211 H -0.5 Z"
         id="path3347"
         inkscape:connector-curvature="0" /></clipPath><clipPath
       clipPathUnits="userSpaceOnUse"
       id="clipPath3363"><path
         d="M -0.5,520.663 H 843.35 V 370.961 H -0.5 Z"
         id="path3361"
         inkscape:connector-curvature="0" /></clipPath><clipPath
       clipPathUnits="userSpaceOnUse"
       id="clipPath3377"><path
         d="M -0.5,594.098 H 736.885 V 376.381 H -0.5 Z"
         id="path3375"
         inkscape:connector-curvature="0" /></clipPath><clipPath
       clipPathUnits="userSpaceOnUse"
       id="clipPath3391"><path
         d="M -0.5,594.098 H 536.975 V 384.092 H -0.5 Z"
         id="path3389"
         inkscape:connector-curvature="0" /></clipPath><clipPath
       clipPathUnits="userSpaceOnUse"
       id="clipPath3405"><path
         d="M -0.5,594.098 H 406.811 V 393.259 H -0.5 Z"
         id="path3403"
         inkscape:connector-curvature="0" /></clipPath><clipPath
       clipPathUnits="userSpaceOnUse"
       id="clipPath3419"><path
         d="M -0.5,594.098 H 313.275 V 405.106 H -0.5 Z"
         id="path3417"
         inkscape:connector-curvature="0" /></clipPath><clipPath
       clipPathUnits="userSpaceOnUse"
       id="clipPath3433"><path
         d="M -0.5,594.098 H 239.53 V 418.1 H -0.5 Z"
         id="path3431"
         inkscape:connector-curvature="0" /></clipPath><clipPath
       clipPathUnits="userSpaceOnUse"
       id="clipPath3447"><path
         d="M -0.5,594.098 H 182.875 V 432.652 H -0.5 Z"
         id="path3445"
         inkscape:connector-curvature="0" /></clipPath><clipPath
       clipPathUnits="userSpaceOnUse"
       id="clipPath3461"><path
         d="M -0.5,594.098 H 136.527 V 448.772 H -0.5 Z"
         id="path3459"
         inkscape:connector-curvature="0" /></clipPath><clipPath
       clipPathUnits="userSpaceOnUse"
       id="clipPath3475"><path
         d="M -0.5,594.098 H 98.1763 V 466.594 H -0.5 Z"
         id="path3473"
         inkscape:connector-curvature="0" /></clipPath><clipPath
       clipPathUnits="userSpaceOnUse"
       id="clipPath3489"><path
         d="M -0.5,594.098 H 65.9824 V 486.489 H -0.5 Z"
         id="path3487"
         inkscape:connector-curvature="0" /></clipPath><clipPath
       clipPathUnits="userSpaceOnUse"
       id="clipPath3503"><path
         d="M -0.5,594.098 H 39.6382 V 509.694 H -0.5 Z"
         id="path3501"
         inkscape:connector-curvature="0" /></clipPath><clipPath
       clipPathUnits="userSpaceOnUse"
       id="clipPath3517"><path
         d="M -0.5,594.098 H 18.5869 V 538.005 H -0.5 Z"
         id="path3515"
         inkscape:connector-curvature="0" /></clipPath><clipPath
       clipPathUnits="userSpaceOnUse"
       id="clipPath3531"><path
         d="M -0.5,594.098 H 3.75488 V 573.275 H -0.5 Z"
         id="path3529"
         inkscape:connector-curvature="0" /></clipPath></defs><sodipodi:namedview
     pagecolor="#ffffff"
     bordercolor="#666666"
     borderopacity="1"
     objecttolerance="10"
     gridtolerance="10"
     guidetolerance="10"
     inkscape:pageopacity="0"
     inkscape:pageshadow="2"
     inkscape:window-width="1920"
     inkscape:window-height="1018"
     id="namedview3131"
     showgrid="false"
     inkscape:zoom="0.63551104"
     inkscape:cx="746.61738"
     inkscape:cy="385.07968"
     inkscape:window-x="-8"
     inkscape:window-y="-8"
     inkscape:window-maximized="1"
     inkscape:current-layer="g3137" /><g
     id="g3137"
     inkscape:groupmode="layer"
     inkscape:label="abstract-534-publicdomainvectors.org"
     transform="matrix(1.3333333,0,0,-1.3333333,0,793.70133)"><g
       id="g3139"><g
         id="g3141"
         clip-path="url(#clipPath3145)"><g
           id="g3147"><g
             id="g3149" /><g
             id="g3159"><g
               clip-path="url(#clipPath3153)"
               id="g3157"><path
                 d="M 456.165,594.098 C 498.085,508.9 531.22,394.92 531.413,259.305 531.477,178.554 520.235,90.335 498.097,-1.918 h 5.941 c 22.991,98.613 33.576,192.478 31.449,277.481 -3.292,128.48 -36.416,236.486 -77.847,318.535 z"
                 style="fill:#ffffff;fill-opacity:1;fill-rule:nonzero;stroke:none"
                 id="path3155"
                 inkscape:connector-curvature="0" /></g></g></g><g
           id="g3161"><g
             id="g3163" /><g
             id="g3173"><g
               clip-path="url(#clipPath3167)"
               id="g3171"><path
                 d="m 357.563,594.098 c 56.799,-80.994 108.958,-198.751 120.049,-345.266 5.764,-76.813 0.555,-161.525 -15.294,-250.75 h 5.986 c 16.27,95.326 20.456,185.371 12.355,266.082 -14.097,139.442 -65.704,251.378 -121.92,329.934 z"
                 style="fill:#ffffff;fill-opacity:1;fill-rule:nonzero;stroke:none"
                 id="path3169"
                 inkscape:connector-curvature="0" /></g></g></g><g
           id="g3175"><g
             id="g3177" /><g
             id="g3187"><g
               clip-path="url(#clipPath3181)"
               id="g3185"><path
                 d="M 257.5,594.098 C 330.588,520.164 408.455,397.339 432.685,234.41 443.335,162.548 444.566,82.639 435.483,-1.918 h 6.193 c 9.113,90.397 6.414,175.408 -6.814,250.977 -27.313,155.639 -103.881,272.632 -176.499,345.039 z"
                 style="fill:#ffffff;fill-opacity:1;fill-rule:nonzero;stroke:none"
                 id="path3183"
                 inkscape:connector-curvature="0" /></g></g></g><g
           id="g3189"><g
             id="g3191" /><g
             id="g3201"><g
               clip-path="url(#clipPath3195)"
               id="g3199"><path
                 d="m 151.409,594.098 c 6.466,-4.593 13.071,-9.443 19.795,-14.562 85.357,-64.94 187.771,-188.473 226.131,-363.032 14.512,-66.196 20.745,-140.001 17.819,-218.422 h 6.338 c 2.563,84.127 -5.454,162.887 -22.737,232.66 -42.859,172.616 -148.638,292.435 -235.378,355.139 -3.91,2.824 -7.778,5.562 -11.601,8.217 z"
                 style="fill:#ffffff;fill-opacity:1;fill-rule:nonzero;stroke:none"
                 id="path3197"
                 inkscape:connector-curvature="0" /></g></g></g><g
           id="g3203"><g
             id="g3205" /><g
             id="g3215"><g
               clip-path="url(#clipPath3209)"
               id="g3213"><path
                 d="M 33.115,594.098 C 57.835,582.11 86.981,566.113 118.734,545.112 210.608,484.283 323.172,366.377 372.498,195.053 389.658,135.328 399.964,68.86 402.631,-1.918 h 6.533 C 405.723,74.555 393.348,145.944 373.209,209.27 319.338,378.356 203.76,492.336 110.714,550.869 81.963,568.929 55.423,583.103 32.342,594.098 Z"
                 style="fill:#ffffff;fill-opacity:1;fill-rule:nonzero;stroke:none"
                 id="path3211"
                 inkscape:connector-curvature="0" /></g></g></g><g
           id="g3217"><g
             id="g3219" /><g
             id="g3229"><g
               clip-path="url(#clipPath3223)"
               id="g3227"><path
                 d="m -0.5,552.62 c 23.44,-10.478 50.013,-23.783 78.625,-40.53 98.942,-58.102 221.686,-172.637 281.592,-342.852 18.345,-52.2 31.456,-109.833 38.759,-171.156 h 6.814 C 396.746,65.28 381.226,128.012 359.653,184.053 295.056,351.561 169.663,461.803 69.819,517.465 44.494,531.581 20.817,543.116 -0.5,552.487 Z"
                 style="fill:#ffffff;fill-opacity:1;fill-rule:nonzero;stroke:none"
                 id="path3225"
                 inkscape:connector-curvature="0" /></g></g></g><g
           id="g3231"><g
             id="g3233" /><g
             id="g3243"><g
               clip-path="url(#clipPath3237)"
               id="g3241"><path
                 d="M -0.5,505.066 C 15.533,497.832 32.508,489.587 50.209,480.208 157.708,423.161 291.58,308.668 361.986,136.5 379.453,93.71 393.487,47.238 403.783,-1.918 h 7.242 C 398.872,53.709 381.948,105.875 360.81,153.189 285.373,321.796 149.23,431.14 41.304,485.522 26.827,492.808 12.855,499.368 -0.5,505.27 Z"
                 style="fill:#ffffff;fill-opacity:1;fill-rule:nonzero;stroke:none"
                 id="path3239"
                 inkscape:connector-curvature="0" /></g></g></g><g
           id="g3245"><g
             id="g3247" /><g
             id="g3257"><g
               clip-path="url(#clipPath3251)"
               id="g3255"><path
                 d="M -0.5,463.912 C 113.573,412.556 257.324,319.905 350.765,158.447 378.644,110.173 402.233,56.135 420.578,-1.918 h 7.943 C 405.549,68.466 374.738,132.941 338.27,188.662 242.742,334.332 108.343,418.495 -0.5,466.01 Z"
                 style="fill:#ffffff;fill-opacity:1;fill-rule:nonzero;stroke:none"
                 id="path3253"
                 inkscape:connector-curvature="0" /></g></g></g><g
           id="g3259"><g
             id="g3261" /><g
             id="g3271"><g
               clip-path="url(#clipPath3265)"
               id="g3269"><path
                 d="M -0.501,435.616 C 94.275,396.169 207.003,331.677 303.159,227.621 360.857,165.043 411.3,86.394 450.57,-1.918 h 9.074 C 415.003,95.292 356.652,180.688 290.886,246.484 196.551,340.665 90.105,399.922 -0.5,436.866 Z"
                 style="fill:#ffffff;fill-opacity:1;fill-rule:nonzero;stroke:none"
                 id="path3267"
                 inkscape:connector-curvature="0" /></g></g></g><g
           id="g3273"><g
             id="g3275" /><g
             id="g3285"><g
               clip-path="url(#clipPath3279)"
               id="g3283"><path
                 d="M -0.5,411.761 C 79.295,381.714 171.55,336.777 260.63,270.076 351.474,201.971 437.818,107.77 504.938,-1.918 h 10.645 C 442.583,114.877 347.432,213.398 248.988,282.783 163.172,343.189 75.782,384.547 -0.5,412.705 Z"
                 style="fill:#ffffff;fill-opacity:1;fill-rule:nonzero;stroke:none"
                 id="path3281"
                 inkscape:connector-curvature="0" /></g></g></g><g
           id="g3287"><g
             id="g3289" /><g
             id="g3299"><g
               clip-path="url(#clipPath3293)"
               id="g3297"><path
                 d="M -0.5,393.341 C 67.574,371.287 144.976,340.736 224.18,298.689 342.822,235.652 465.001,143.58 564.554,31.502 574.268,20.556 583.78,9.407 593.089,-1.918 h 13.093 C 591.117,16.006 575.567,33.485 559.554,50.418 456.271,159.549 332.215,247.537 213.233,307.52 137.738,345.563 64.461,373.62 -0.5,394.208 Z"
                 style="fill:#ffffff;fill-opacity:1;fill-rule:nonzero;stroke:none"
                 id="path3295"
                 inkscape:connector-curvature="0" /></g></g></g><g
           id="g3301"><g
             id="g3303" /><g
             id="g3313"><g
               clip-path="url(#clipPath3307)"
               id="g3311"><path
                 d="M -0.5,380.363 C 58.268,365.061 124.294,345.217 193.684,319.676 376.294,252.371 579.512,132.153 743.672,-1.918 h 19.78 C 589.327,137.066 373.601,258.975 183.41,325.801 117.761,348.842 55.41,366.984 -0.5,381.179 Z"
                 style="fill:#ffffff;fill-opacity:1;fill-rule:nonzero;stroke:none"
                 id="path3309"
                 inkscape:connector-curvature="0" /></g></g></g><g
           id="g3315"><g
             id="g3317" /><g
             id="g3327"><g
               clip-path="url(#clipPath3321)"
               id="g3325"><path
                 d="M 843.35,121.151 C 624.166,212.117 368.065,293.77 159.042,340.609 101.924,353.4 48.158,364.133 -0.5,373.052 v -0.781 C 50.832,362.57 107.958,350.746 168.687,336.495 377.774,287.364 631.358,201.657 843.35,109.002 Z"
                 style="fill:#ffffff;fill-opacity:1;fill-rule:nonzero;stroke:none"
                 id="path3323"
                 inkscape:connector-curvature="0" /></g></g></g><g
           id="g3329"><g
             id="g3331" /><g
             id="g3341"><g
               clip-path="url(#clipPath3335)"
               id="g3339"><path
                 d="M 843.35,269.085 C 605.136,299.654 344.221,331.069 139.58,353.803 89.453,359.38 42.4,364.505 -0.5,369.106 v -0.692 c 45.421,-5.09 95.583,-10.828 149.129,-17.13 204.459,-24.074 463.059,-57.812 694.721,-90.496 z"
                 style="fill:#ffffff;fill-opacity:1;fill-rule:nonzero;stroke:none"
                 id="path3337"
                 inkscape:connector-curvature="0" /></g></g></g><g
           id="g3343"><g
             id="g3345" /><g
             id="g3355"><g
               clip-path="url(#clipPath3349)"
               id="g3353"><path
                 d="m 843.35,398.518 c -107.17,-9.385 -217.967,-17.274 -325.494,-22.67 -141.645,-7.084 -277.498,-9.793 -393.426,-9.162 -44.629,0.26 -86.518,1.008 -124.93,2.035 v -0.559 c 40.796,-1.255 85.582,-2.232 133.426,-2.683 116.394,-1.08 252.276,1.058 392.938,7.25 105.54,4.653 213.674,11.587 317.486,19.819 z"
                 style="fill:#ffffff;fill-opacity:1;fill-rule:nonzero;stroke:none"
                 id="path3351"
                 inkscape:connector-curvature="0" /></g></g></g><g
           id="g3357"><g
             id="g3359" /><g
             id="g3369"><g
               clip-path="url(#clipPath3363)"
               id="g3367"><path
                 d="M 843.35,520.663 C 730.493,489.958 613.236,461.639 499.743,438.814 359.795,410.696 226.123,391.134 113.015,380.171 72.54,376.254 34.513,373.415 -0.5,371.384 v -0.423 c 37.265,2.043 78,4.978 121.489,9.134 113.605,10.884 247.383,30.244 386.516,57.761 111.624,22.095 226.305,49.29 335.845,78.475 z"
                 style="fill:#ffffff;fill-opacity:1;fill-rule:nonzero;stroke:none"
                 id="path3365"
                 inkscape:connector-curvature="0" /></g></g></g><g
           id="g3371"><g
             id="g3373" /><g
             id="g3383"><g
               clip-path="url(#clipPath3377)"
               id="g3381"><path
                 d="M 730.843,594.098 C 647.545,559.313 562.609,526.688 479.413,498.175 344.005,451.801 214.281,416.922 104.749,394.965 67.276,387.463 32.03,381.464 -0.5,376.668 v -0.287 c 34.648,5.031 72.427,11.416 112.714,19.521 110.018,22.163 239.855,57.13 374.506,103.125 83.165,28.404 167.725,60.801 250.165,95.071 z"
                 style="fill:#ffffff;fill-opacity:1;fill-rule:nonzero;stroke:none"
                 id="path3379"
                 inkscape:connector-curvature="0" /></g></g></g><g
           id="g3385"><g
             id="g3387" /><g
             id="g3397"><g
               clip-path="url(#clipPath3391)"
               id="g3395"><path
                 d="M 535.088,594.098 C 508.913,580.563 482.734,567.447 456.665,554.839 328.28,492.763 204.184,444.042 99.041,411.626 63.632,400.721 30.294,391.691 -0.5,384.216 v -0.124 c 32.774,7.912 68.474,17.582 106.502,29.395 105.579,32.835 229.717,81.897 357.335,143.739 24.513,11.884 49.091,24.202 73.638,36.872 z"
                 style="fill:#ffffff;fill-opacity:1;fill-rule:nonzero;stroke:none"
                 id="path3393"
                 inkscape:connector-curvature="0" /></g></g></g><g
           id="g3399"><g
             id="g3401" /><g
             id="g3411"><g
               clip-path="url(#clipPath3405)"
               id="g3409"><path
                 d="M 406.661,594.098 C 296.071,525.72 188.311,469.99 95.275,430.583 61.219,416.164 29.126,404.001 -0.5,393.761 v -0.502 c 80.025,27.995 163.72,65.375 249.93,110.713 52.181,27.461 104.695,57.546 157.381,90.126 z"
                 style="fill:#ffffff;fill-opacity:1;fill-rule:nonzero;stroke:none"
                 id="path3407"
                 inkscape:connector-curvature="0" /></g></g></g><g
           id="g3413"><g
             id="g3415" /><g
             id="g3425"><g
               clip-path="url(#clipPath3419)"
               id="g3423"><path
                 d="M 313.275,594.098 C 235.954,537.627 160.587,489.559 92.782,452.178 59.617,433.912 28.33,418.336 -0.5,405.106 v 0.213 c 30.504,14.038 63.804,30.722 99.176,50.453 65.898,36.78 137.704,84.141 210.888,138.326 z"
                 style="fill:#ffffff;fill-opacity:1;fill-rule:nonzero;stroke:none"
                 id="path3421"
                 inkscape:connector-curvature="0" /></g></g></g><g
           id="g3427"><g
             id="g3429" /><g
             id="g3439"><g
               clip-path="url(#clipPath3433)"
               id="g3437"><path
                 d="M 239.53,594.098 C 188.597,549.582 138.358,509.797 90.849,476.666 58.391,454.051 27.704,434.643 -0.5,418.1 v 0.404 c 29.709,17.52 62.219,38.251 96.653,62.581 45.547,32.206 93.432,70.472 141.868,113.013 z"
                 style="fill:#ffffff;fill-opacity:1;fill-rule:nonzero;stroke:none"
                 id="path3435"
                 inkscape:connector-curvature="0" /></g></g></g><g
           id="g3441"><g
             id="g3443" /><g
             id="g3453"><g
               clip-path="url(#clipPath3447)"
               id="g3451"><path
                 d="M 182.875,594.098 C 151.147,561.264 119.526,531.025 88.715,504.17 57.083,476.618 27.039,452.882 -0.5,432.652 v 0.638 c 28.855,21.363 60.506,46.631 93.844,76.139 28.797,25.513 58.208,53.964 87.667,84.669 z"
                 style="fill:#ffffff;fill-opacity:1;fill-rule:nonzero;stroke:none"
                 id="path3449"
                 inkscape:connector-curvature="0" /></g></g></g><g
           id="g3455"><g
             id="g3457" /><g
             id="g3467"><g
               clip-path="url(#clipPath3461)"
               id="g3465"><path
                 d="M 136.527,594.098 C 119.558,573.171 102.494,553.312 85.496,534.74 55.178,501.638 26.107,473.057 -0.5,448.772 v 0.887 c 27.715,25.566 58.148,55.884 89.846,91.172 15.076,16.8 30.164,34.61 45.154,53.267 z"
                 style="fill:#ffffff;fill-opacity:1;fill-rule:nonzero;stroke:none"
                 id="path3463"
                 inkscape:connector-curvature="0" /></g></g></g><g
           id="g3469"><g
             id="g3471" /><g
             id="g3481"><g
               clip-path="url(#clipPath3475)"
               id="g3479"><path
                 d="M 98.176,594.098 C 92.243,585.289 86.262,576.675 80.244,568.276 52.146,529.112 24.683,495.233 -0.5,466.594 v 1.125 c 26.066,30.07 54.606,65.908 83.67,107.502 4.319,6.184 8.613,12.479 12.876,18.877 z"
                 style="fill:#ffffff;fill-opacity:1;fill-rule:nonzero;stroke:none"
                 id="path3477"
                 inkscape:connector-curvature="0" /></g></g></g><g
           id="g3483"><g
             id="g3485" /><g
             id="g3495"><g
               clip-path="url(#clipPath3489)"
               id="g3493"><path
                 d="M 65.982,594.098 C 58.319,579.907 50.526,566.243 42.664,553.185 27.898,528.682 13.354,506.434 -0.5,486.489 v 1.525 c 13.409,19.684 27.47,41.608 41.725,65.711 7.621,12.893 15.169,26.377 22.584,40.373 z"
                 style="fill:#ffffff;fill-opacity:1;fill-rule:nonzero;stroke:none"
                 id="path3491"
                 inkscape:connector-curvature="0" /></g></g></g><g
           id="g3497"><g
             id="g3499" /><g
             id="g3509"><g
               clip-path="url(#clipPath3503)"
               id="g3507"><path
                 d="M 39.638,594.098 C 30.743,572.848 21.517,552.833 12.247,534.341 7.958,525.8 3.701,517.582 -0.5,509.694 v 2.132 c 3.903,7.541 7.854,15.382 11.831,23.516 8.891,18.2 17.717,37.881 26.207,58.756 z"
                 style="fill:#ffffff;fill-opacity:1;fill-rule:nonzero;stroke:none"
                 id="path3505"
                 inkscape:connector-curvature="0" /></g></g></g><g
           id="g3511"><g
             id="g3513" /><g
             id="g3523"><g
               clip-path="url(#clipPath3517)"
               id="g3521"><path
                 d="M 18.587,594.098 C 12.524,574.119 6.06,555.327 -0.5,538.005 v 3.334 c 5.908,16.377 11.702,34.045 17.127,52.759 z"
                 style="fill:#ffffff;fill-opacity:1;fill-rule:nonzero;stroke:none"
                 id="path3519"
                 inkscape:connector-curvature="0" /></g></g></g><g
           id="g3525"><g
             id="g3527" /><g
             id="g3537"><g
               clip-path="url(#clipPath3531)"
               id="g3535"><path
                 d="M 3.755,594.098 C 2.406,586.988 0.982,580.043 -0.5,573.275 v 7.757 c 0.831,4.289 1.636,8.645 2.41,13.066 z"
                 style="fill:#ffffff;fill-opacity:1;fill-rule:nonzero;stroke:none"
                 id="path3533"
                 inkscape:connector-curvature="0" /></g></g></g></g></g></g></svg>